<svg width="404" height="299" viewBox="0 0 404 299" fill="none" xmlns="http://www.w3.org/2000/svg">
<g clip-path="url(#clip0_759_2086)">
<path d="M358.444 132.299C341.853 116.562 321.849 21.6602 253.333 71.0873C217.931 96.6245 158.242 49.1663 108.834 65.5547C63.4596 80.6104 59.083 130.21 63.473 146.374C72.3405 179.023 44.7415 183.882 19.1422 197.905C-21.0208 219.908 8.74632 298.054 46.6874 298.428C84.6285 298.803 314.174 298.428 314.174 298.428C314.174 298.428 369.358 297.028 392.271 263.204C416.934 226.803 401.3 172.944 358.444 132.299Z" fill="#EBF2F9"/>
<path d="M132.851 289.669C132.851 289.669 133.329 298.286 134.83 298.414C135.032 298.429 142.439 298.429 142.439 298.429L151.892 298.369C151.892 298.369 151.832 295.838 149.064 295.299C146.304 294.76 141.678 292.604 140.002 288.546C138.237 284.271 132.851 289.677 132.851 289.677V289.669Z" fill="#163560"/>
<path d="M129.444 189.1C129.444 189.1 133.565 190.276 136.184 189.4C138.803 188.524 143.308 189.961 144.035 191.024C144.762 192.088 144.493 192.507 143.2 192.874C141.907 193.24 137.315 195.419 134.305 194.154C131.289 192.896 127.357 192.851 127.357 192.851L129.451 189.1H129.444Z" fill="#E49963"/>
<path d="M93.8528 149.323C93.8528 149.323 98.4784 185.888 106.141 189.16C109.918 190.777 126.63 194.438 131.572 194.805C131.572 194.805 132.784 193.712 132.487 189.265C132.487 189.265 114.981 182.123 112.497 178.237C108.794 172.45 114.793 154.609 110.154 149.181C105.508 143.753 97.6907 141.417 93.8595 149.323H93.8528Z" fill="#4A75CB"/>
<path d="M94.4454 290.201V282.227H83.1607C82.8577 282.227 82.6086 281.95 82.6086 281.614V280.341C82.6086 280.004 82.8577 279.727 83.1607 279.727H94.4454V234.35C94.4454 233.077 95.3813 232.037 96.5259 232.037H98.7613C99.9059 232.037 100.842 233.077 100.842 234.35V279.727H112.127C112.429 279.727 112.679 280.004 112.679 280.341V281.614C112.679 281.95 112.429 282.227 112.127 282.227H100.842V290.201C109.009 290.89 115.554 294.154 117.385 298.384H77.8954C79.7335 294.161 86.2714 290.89 94.4386 290.201H94.4454Z" fill="#A6C7F9"/>
<path d="M95.4082 226.354C96.7548 228.9 98.3169 231.288 99.9261 233.541C104.902 240.519 110.309 246.276 111.258 251.719C111.446 252.805 111.743 253.972 112.133 255.2C112.524 256.451 113.015 257.761 113.574 259.108C115.682 264.207 118.839 269.919 121.991 275.107C127.438 284.084 132.562 291.571 132.562 291.571L141.954 291.129C141.577 290.081 137.483 277.69 132.003 262.552C129.781 256.406 127.411 249.87 125.128 243.558C124.825 242.712 124.522 241.874 124.219 241.043C123.519 239.111 122.832 237.217 122.166 235.368C117.022 221.151 112.921 209.831 112.921 209.831C112.921 209.831 92.3581 201.169 90.217 206.784C88.4529 211.411 89.8871 215.948 95.415 226.362L95.4082 226.354Z" fill="#FFA041"/>
<path d="M111.103 265.053C111.103 265.053 104.572 269.717 105.205 271.237C105.292 271.439 108.901 278.626 108.901 278.626L113.561 287.775C113.561 287.775 115.52 286.48 114.591 283.537C113.662 280.595 113.103 275.047 115.48 271.446C117.978 267.651 111.11 265.053 111.11 265.053H111.103Z" fill="#163560"/>
<path d="M119.944 205.713C119.944 205.713 145.758 223.592 148.64 235.608C151.522 247.624 114.301 273.258 114.301 273.258C114.301 273.258 110.221 269.253 109.501 266.318C109.501 266.318 126.327 243.903 129.976 238.879C132.218 235.795 96.8355 228.196 92.5129 220.724C88.1902 213.245 89.7388 206.956 89.7388 206.956L119.95 205.713H119.944Z" fill="#FF8100"/>
<path d="M71.2229 228.675H124.058C125.115 228.675 125.977 229.633 125.977 230.809V242.555C125.977 243.731 125.115 244.697 124.058 244.697H71.2229C70.1658 244.697 69.304 243.738 69.304 242.555V230.809C69.304 229.633 70.1658 228.675 71.2229 228.675Z" fill="#1C468A"/>
<path d="M108.006 143.05C110.544 144.794 111.938 147.01 111.938 147.01C105.757 148.792 95.5024 142.413 95.5024 142.413C95.5024 142.413 99.4817 139.441 100.956 132.905C101.03 132.576 101.098 132.239 101.158 131.895C101.354 130.794 101.475 129.604 101.495 128.316L104.336 131.146L109.063 135.855C109.063 135.855 108.955 137.809 108.363 141.163C108.262 141.747 108.14 142.376 108.006 143.05Z" fill="#E49963"/>
<path d="M88.9848 175.489C89.8736 188.741 88.3789 208.88 89.3888 212.369C90.2574 215.379 100.465 213.597 104.404 212.593C105.865 212.219 107.629 211.688 109.46 211.059C114.557 209.307 120.105 206.799 120.698 204.942C120.718 204.867 120.738 204.8 120.752 204.732C120.806 204.463 120.792 204.208 120.738 203.954C120.543 203.003 119.775 201.977 119.688 199.634C119.587 197.014 119.6 193.929 119.513 190.613C119.506 190.238 119.506 189.834 119.466 189.46V189.325C119.466 189.25 119.466 189.183 119.459 189.115C119.371 185.417 119.196 181.524 119.001 177.668C118.873 175.242 118.725 172.847 118.557 170.548C118.112 164.611 117.513 159.341 116.719 156.002C115.426 150.566 112.571 147.017 109.972 144.412L108.093 142.623C105.993 143.132 103.515 142.795 101.273 141.612C98.8421 140.332 98.0072 139.411 97.583 139.755C91.9743 144.569 87.9412 159.303 88.9916 175.497L88.9848 175.489Z" fill="#739AF0"/>
<path d="M109.426 211.089C114.523 209.337 120.072 206.829 120.664 204.972C120.684 204.897 120.704 204.83 120.718 204.762C120.718 204.5 120.711 204.246 120.704 203.984C120.509 203.04 119.742 202.015 119.654 199.664C119.553 197.044 119.567 193.959 119.479 190.642C119.472 190.268 119.472 189.864 119.432 189.49V189.355C119.432 189.28 119.432 189.213 119.425 189.145L100.182 179.442C100.182 179.442 99.071 196.684 109.42 211.096L109.426 211.089Z" fill="#4A75CB"/>
<path d="M109.063 135.855C109.063 135.855 108.955 137.809 108.363 141.163C103.75 139.508 101.656 134.874 100.956 132.905C100.754 132.351 100.673 132.007 100.673 132.007C100.673 132.007 100.855 131.962 101.158 131.894C101.805 131.745 103.03 131.453 104.336 131.146L109.063 135.855Z" fill="#D68D5D"/>
<path d="M110.928 135.803C110.928 135.803 100.795 137.075 100.182 130.045C99.5693 123.015 97.8456 118.448 104.289 117.333C110.733 116.225 112.228 118.77 112.948 121.061C113.668 123.352 113.554 135.286 110.935 135.803H110.928Z" fill="#E49963"/>
<path d="M100.222 130.532C100.222 130.532 100.862 121.203 110.093 120.238C116.409 119.579 112.887 113.53 112.214 112.564C112.214 112.564 107.373 113.305 102.411 114.211C91.9944 116.127 99.1989 129.079 100.222 130.532Z" fill="#000066"/>
<path d="M149.28 198.264L150.162 198.586L157.71 172.757L156.828 172.435L149.28 198.264Z" fill="#4A75CB"/>
<path d="M124.576 196.272L150.196 196.879L150.162 198.586L124.542 197.972L124.576 196.272Z" fill="#4A75CB"/>
<path d="M127.323 194.723C127.323 194.723 131.302 196.4 133.989 195.846C136.675 195.299 141.012 197.276 141.631 198.421C142.244 199.567 141.941 199.949 140.614 200.158C139.288 200.36 134.514 201.963 131.646 200.345C128.771 198.721 124.872 198.197 124.872 198.197L127.323 194.723Z" fill="#E49963"/>
<path d="M95.8929 150.821C95.8929 150.821 96.8692 187.73 104.154 191.923C107.75 193.997 123.99 199.679 128.865 200.652C128.865 200.652 130.178 199.717 130.326 195.262C130.326 195.262 113.635 186.016 111.554 181.846C108.45 175.647 116.18 158.644 112.106 152.678C108.033 146.711 100.485 143.431 95.8997 150.821H95.8929Z" fill="#739AF0"/>
<path d="M188.783 238.969H321.021C330.245 238.969 337.726 230.652 337.726 220.387V19.3469C337.726 9.08262 330.245 0.764893 321.021 0.764893H188.783C179.552 0.764893 172.071 9.08262 172.071 19.3469V220.387C172.071 230.652 179.552 238.969 188.783 238.969Z" fill="#D2E4FF"/>
<path d="M188.345 214.854H321.721V25.7329H188.345V214.854Z" fill="#F3F9FF"/>
<path d="M302.808 206.559C298.923 206.559 295.772 203.056 295.772 198.736V90.5528C295.772 86.233 298.923 82.7292 302.808 82.7292C306.693 82.7292 309.844 86.233 309.844 90.5528V198.736C309.844 203.056 306.693 206.559 302.808 206.559Z" fill="#FF8100"/>
<path d="M279.747 206.559C275.862 206.559 272.711 203.056 272.711 198.736V56.0392C272.711 51.7194 275.862 48.2156 279.747 48.2156C283.632 48.2156 286.783 51.7194 286.783 56.0392V198.736C286.783 203.056 283.632 206.559 279.747 206.559Z" fill="#FF8100"/>
<path d="M254.592 206.559C250.707 206.559 247.556 203.055 247.556 198.736V120.5C247.556 116.18 250.707 112.676 254.592 112.676C258.477 112.676 261.628 116.18 261.628 120.5V198.736C261.628 203.055 258.477 206.559 254.592 206.559Z" fill="#EE9849"/>
<path d="M230.111 206.559C226.226 206.559 223.075 203.055 223.075 198.736V77.1815C223.075 72.8617 226.226 69.3579 230.111 69.3579C233.996 69.3579 237.147 72.8617 237.147 77.1815V198.736C237.147 203.055 233.996 206.559 230.111 206.559Z" fill="#FF8100"/>
<path d="M212.537 138.872V198.728C212.537 203.048 209.386 206.552 205.501 206.552C201.616 206.552 198.465 203.048 198.465 198.728V138.872C198.465 134.552 201.616 131.048 205.501 131.048C209.386 131.048 212.537 134.552 212.537 138.872Z" fill="#EE9849"/>
<path d="M223.741 59.6628H235.659C236.339 59.6628 236.891 60.2767 236.891 61.0329C236.891 61.7891 236.339 62.403 235.659 62.403H223.741C223.061 62.403 222.509 61.7891 222.509 61.0329C222.509 60.2767 223.068 59.6628 223.741 59.6628Z" fill="#A6C7F9"/>
<path d="M232.945 64.6489H235.659C236.339 64.6489 236.891 65.2628 236.891 66.019C236.891 66.7751 236.339 67.3891 235.659 67.3891H232.945C232.265 67.3891 231.713 66.7751 231.713 66.019C231.713 65.2628 232.272 64.6489 232.945 64.6489Z" fill="#A6C7F9"/>
<path d="M272.853 38.6177H284.77C285.45 38.6177 286.002 39.2316 286.002 39.9877C286.002 40.7439 285.45 41.3578 284.77 41.3578H272.853C272.172 41.3578 271.62 40.7439 271.62 39.9877C271.62 39.2316 272.179 38.6177 272.853 38.6177Z" fill="#A6C7F9"/>
<path d="M282.057 43.6038H284.77C285.45 43.6038 286.002 44.2177 286.002 44.9738C286.002 45.73 285.45 46.3439 284.77 46.3439H282.057C281.377 46.3439 280.824 45.73 280.824 44.9738C280.824 44.2177 281.383 43.6038 282.057 43.6038Z" fill="#A6C7F9"/>
<path d="M296.688 73.1089H308.605C309.279 73.1089 309.837 73.7228 309.837 74.4789C309.837 75.2351 309.285 75.849 308.605 75.849H296.688C296.008 75.849 295.456 75.2351 295.456 74.4789C295.456 73.7228 296.008 73.1089 296.688 73.1089Z" fill="#A6C7F9"/>
<path d="M305.899 78.1025H308.612C309.285 78.1025 309.844 78.7164 309.844 79.4726C309.844 80.2288 309.292 80.8427 308.612 80.8427H305.899C305.219 80.8427 304.666 80.2288 304.666 79.4726C304.666 78.7164 305.219 78.1025 305.899 78.1025Z" fill="#A6C7F9"/>
<path d="M248.627 103.071H260.544C261.224 103.071 261.777 103.684 261.777 104.441C261.777 105.197 261.218 105.811 260.544 105.811H248.627C247.947 105.811 247.395 105.197 247.395 104.441C247.395 103.684 247.947 103.071 248.627 103.071Z" fill="#A6C7F9"/>
<path d="M257.831 108.057H260.544C261.224 108.057 261.777 108.671 261.777 109.427C261.777 110.183 261.218 110.797 260.544 110.797H257.831C257.151 110.797 256.599 110.183 256.599 109.427C256.599 108.671 257.151 108.057 257.831 108.057Z" fill="#A6C7F9"/>
<path d="M199.542 121.391H211.46C212.14 121.391 212.692 122.005 212.692 122.761C212.692 123.517 212.14 124.131 211.46 124.131H199.542C198.862 124.131 198.31 123.517 198.31 122.761C198.31 122.005 198.869 121.391 199.542 121.391Z" fill="#A6C7F9"/>
<path d="M208.747 126.377H211.46C212.14 126.377 212.692 126.991 212.692 127.747C212.692 128.503 212.14 129.117 211.46 129.117H208.747C208.067 129.117 207.514 128.503 207.514 127.747C207.514 126.991 208.073 126.377 208.747 126.377Z" fill="#A6C7F9"/>
<path d="M205.501 109.636C204.02 109.636 202.815 110.977 202.815 112.624C202.815 114.271 204.02 115.611 205.501 115.611C206.982 115.611 208.188 114.271 208.188 112.624C208.188 110.977 206.982 109.636 205.501 109.636ZM205.501 117.49C203.084 117.49 201.118 115.304 201.118 112.616C201.118 109.928 203.084 107.75 205.501 107.75C207.918 107.75 209.878 109.936 209.878 112.616C209.878 115.304 207.912 117.49 205.501 117.49Z" fill="#2B478B"/>
<path d="M203.636 109.637C203.421 109.637 203.205 109.547 203.037 109.36L189.874 94.7231H82.9452C82.4739 94.7231 82.0968 94.3038 82.0968 93.7798C82.0968 93.2557 82.4739 92.8364 82.9452 92.8364H190.574L204.229 108.027C204.559 108.394 204.559 108.993 204.229 109.36C204.067 109.547 203.845 109.637 203.629 109.637H203.636Z" fill="#2B478B"/>
<path d="M230.69 212.324C229.208 212.324 228.003 213.664 228.003 215.311C228.003 216.958 229.208 218.299 230.69 218.299C232.171 218.299 233.376 216.958 233.376 215.311C233.376 213.664 232.171 212.324 230.69 212.324ZM230.69 220.178C228.273 220.178 226.307 217.992 226.307 215.304C226.307 212.616 228.273 210.438 230.69 210.438C233.107 210.438 235.066 212.624 235.066 215.304C235.066 217.992 233.1 220.178 230.69 220.178Z" fill="#2B478B"/>
<path d="M351.549 235.091H245.617L231.962 219.908C231.632 219.541 231.632 218.942 231.962 218.575C232.292 218.209 232.831 218.209 233.161 218.575L246.324 233.212H351.556C352.027 233.212 352.404 233.631 352.404 234.155C352.404 234.679 352.02 235.099 351.556 235.099L351.549 235.091Z" fill="#2B478B"/>
<path d="M279.134 26.9909C277.653 26.9909 276.448 28.331 276.448 29.9781C276.448 31.6252 277.653 32.9653 279.134 32.9653C280.616 32.9653 281.821 31.6252 281.821 29.9781C281.821 28.331 280.616 26.9909 279.134 26.9909ZM279.134 34.8444C276.717 34.8444 274.751 32.6583 274.751 29.9781C274.751 27.2904 276.717 25.1042 279.134 25.1042C281.552 25.1042 283.511 27.2904 283.511 29.9781C283.511 32.6658 281.545 34.8444 279.134 34.8444Z" fill="#2B478B"/>
<path d="M277.269 26.9908C277.054 26.9908 276.839 26.901 276.67 26.7138L263.507 12.0773H156.578C156.107 12.0773 155.73 11.6581 155.73 11.134C155.73 10.6099 156.107 10.1907 156.578 10.1907H264.207L277.862 25.3812C278.192 25.748 278.192 26.347 277.862 26.7138C277.694 26.901 277.478 26.9908 277.263 26.9908H277.269Z" fill="#2B478B"/>
<path d="M154.41 90.6576H84.1639C82.9788 90.6576 82.016 89.587 82.016 88.2694C82.016 86.9517 82.9788 85.8811 84.1639 85.8811H154.41C155.595 85.8811 156.558 86.9517 156.558 88.2694C156.558 89.587 155.595 90.6576 154.41 90.6576Z" fill="#739AF0"/>
<path d="M154.41 83.1186H111.292C110.107 83.1186 109.144 82.048 109.144 80.7303C109.144 79.4126 110.107 78.342 111.292 78.342H154.41C155.595 78.342 156.558 79.4126 156.558 80.7303C156.558 82.048 155.595 83.1186 154.41 83.1186Z" fill="#739AF0"/>
<path d="M154.41 75.5795H111.292C110.107 75.5795 109.144 74.5089 109.144 73.1912C109.144 71.8736 110.107 70.803 111.292 70.803H154.41C155.595 70.803 156.558 71.8736 156.558 73.1912C156.558 74.5089 155.595 75.5795 154.41 75.5795Z" fill="#739AF0"/>
<path d="M227.552 7.53286H157.306C156.121 7.53286 155.158 6.46226 155.158 5.1446C155.158 3.82695 156.121 2.75635 157.306 2.75635H227.552C228.737 2.75635 229.7 3.82695 229.7 5.1446C229.7 6.46226 228.737 7.53286 227.552 7.53286Z" fill="#739AF0"/>
<path d="M294.836 258.682C294.836 249.293 287.989 241.687 279.552 241.687C271.109 241.687 264.268 249.293 264.268 258.682C264.268 268.07 271.115 275.677 279.552 275.677C287.995 275.677 294.836 268.063 294.836 258.682Z" fill="#82B378"/>
<path d="M279.552 244.315C286.689 244.315 292.473 250.746 292.473 258.682C292.473 262.612 291.059 266.168 288.763 268.759L279.552 258.682L267.479 263.803C266.934 262.208 266.631 260.486 266.631 258.682C266.631 250.746 272.415 244.315 279.552 244.315Z" fill="white"/>
<path d="M281.437 251.39H286.938C287.154 251.39 287.329 251.584 287.329 251.824C287.329 252.063 287.154 252.258 286.938 252.258H281.437C281.222 252.258 281.047 252.063 281.047 251.824C281.047 251.584 281.222 251.39 281.437 251.39Z" fill="#82B378"/>
<path d="M281.437 252.775H286.938C287.154 252.775 287.329 252.969 287.329 253.209C287.329 253.448 287.154 253.643 286.938 253.643H281.437C281.222 253.643 281.047 253.448 281.047 253.209C281.047 252.969 281.222 252.775 281.437 252.775Z" fill="#82B378"/>
<path d="M284.669 254.16H286.938C287.154 254.16 287.329 254.354 287.329 254.594C287.329 254.833 287.154 255.028 286.938 255.028H284.669C284.454 255.028 284.279 254.833 284.279 254.594C284.279 254.354 284.454 254.16 284.669 254.16Z" fill="#82B378"/>
<path d="M266.16 250.708L272.206 243.985H266.16V250.708Z" fill="#82B378"/>
<path d="M346.459 258.682C346.459 249.293 339.618 241.687 331.175 241.687C322.731 241.687 315.891 249.293 315.891 258.682C315.891 268.07 322.731 275.677 331.175 275.677C339.618 275.677 346.459 268.063 346.459 258.682Z" fill="#82B378"/>
<path d="M318.254 258.682C318.254 250.746 324.038 244.315 331.175 244.315C338.312 244.315 344.096 250.746 344.096 258.682C344.096 266.618 338.312 273.049 331.175 273.049C328.226 273.049 325.512 271.948 323.337 270.106L331.175 258.682L319.102 263.803C318.557 262.208 318.254 260.486 318.254 258.682Z" fill="white"/>
<path d="M333.168 251.39H338.669C338.884 251.39 339.059 251.584 339.059 251.824C339.059 252.063 338.884 252.258 338.669 252.258H333.168C332.952 252.258 332.771 252.063 332.771 251.824C332.771 251.584 332.952 251.39 333.168 251.39Z" fill="#82B378"/>
<path d="M333.168 252.775H338.669C338.884 252.775 339.059 252.969 339.059 253.209C339.059 253.448 338.884 253.643 338.669 253.643H333.168C332.952 253.643 332.771 253.448 332.771 253.209C332.771 252.969 332.952 252.775 333.168 252.775Z" fill="#82B378"/>
<path d="M336.393 254.16H338.669C338.884 254.16 339.059 254.354 339.059 254.594C339.059 254.833 338.884 255.028 338.669 255.028H336.393C336.177 255.028 336.002 254.833 336.002 254.594C336.002 254.354 336.177 254.16 336.393 254.16Z" fill="#82B378"/>
<path d="M317.87 250.708L323.916 243.985H317.87V250.708Z" fill="#82B378"/>
<path d="M387.134 298.99H33.7127C33.4367 298.99 33.2078 298.736 33.2078 298.429C33.2078 298.114 33.4367 297.867 33.7127 297.867H387.134C387.416 297.867 387.639 298.122 387.639 298.429C387.639 298.736 387.416 298.99 387.134 298.99Z" fill="#202F4E"/>
</g>
<defs>
<clipPath id="clip0_759_2086">
<rect width="404" height="298.22" fill="white" transform="translate(0 0.771484)"/>
</clipPath>
</defs>
</svg>
